<?xml version="1.0" standalone="no"?>
<!DOCTYPE svg PUBLIC "-//W3C//DTD SVG 20010904//EN"
 "http://www.w3.org/TR/2001/REC-SVG-20010904/DTD/svg10.dtd">
<svg version="1.0" xmlns="http://www.w3.org/2000/svg"
 width="512.000000pt" height="512.000000pt" viewBox="0 0 512.000000 512.000000"
 preserveAspectRatio="xMidYMid meet">
<metadata>
Created by potrace 1.14, written by Peter Selinger 2001-2017
</metadata>
<g transform="translate(0.000000,512.000000) scale(0.100000,-0.100000)"
fill="#000000" stroke="none">
<path d="M715 4825 c-487 -116 -590 -764 -161 -1023 117 -71 267 -97 401 -68
348 75 539 450 394 774 -72 160 -225 284 -391 320 -64 13 -182 12 -243 -3z
m228 -329 c46 -23 84 -62 114 -117 27 -51 26 -144 -1 -201 -52 -109 -179 -162
-295 -123 -63 21 -132 94 -151 159 -33 119 35 250 153 292 46 17 136 11 180
-10z"/>
<path d="M2120 4280 l0 -160 1280 0 1280 0 0 160 0 160 -1280 0 -1280 0 0
-160z"/>
<path d="M726 3109 c-103 -21 -243 -104 -308 -183 -48 -58 -96 -145 -113 -202
-74 -255 35 -525 265 -651 90 -50 155 -67 260 -67 114 0 156 7 235 44 146 66
261 195 307 343 30 95 30 254 1 339 -59 169 -189 299 -360 359 -68 24 -213 33
-287 18z m201 -327 c51 -17 124 -93 140 -146 47 -152 -60 -307 -216 -312 -169
-6 -286 145 -237 308 18 58 34 81 86 119 67 50 142 60 227 31z"/>
<path d="M2120 2560 l0 -160 1280 0 1280 0 0 160 0 160 -1280 0 -1280 0 0
-160z"/>
<path d="M710 1384 c-288 -76 -466 -343 -421 -634 41 -262 267 -459 536 -466
200 -5 375 88 485 257 197 304 53 708 -297 830 -76 27 -227 33 -303 13z m232
-328 c86 -42 133 -118 133 -216 -1 -141 -95 -234 -235 -235 -81 0 -125 20
-178 80 -78 89 -80 220 -4 311 21 25 90 70 118 76 41 10 131 1 166 -16z"/>
<path d="M2120 840 l0 -160 1280 0 1280 0 0 160 0 160 -1280 0 -1280 0 0 -160z"/>
</g>
</svg>
